<mxfile host="app.diagrams.net" agent="Mozilla/5.0 (Windows NT 10.0; Win64; x64) AppleWebKit/537.36 (KHTML, like Gecko) Chrome/123.0.0.0 Safari/537.36" version="24.7.14">
  <diagram name="Página-1" id="JXZpajxjpOoojDASI87f">
    <mxGraphModel grid="1" page="1" gridSize="10" guides="1" tooltips="1" connect="1" arrows="1" fold="1" pageScale="1" pageWidth="827" pageHeight="1169" math="0" shadow="0">
      <root>
        <mxCell id="0" />
        <mxCell id="1" parent="0" />
        <mxCell id="JQBbaUtNw9rJ8IWlR89G-6" style="edgeStyle=orthogonalEdgeStyle;rounded=0;orthogonalLoop=1;jettySize=auto;html=1;entryX=0.5;entryY=0;entryDx=0;entryDy=0;" edge="1" parent="1" source="JQBbaUtNw9rJ8IWlR89G-1" target="JQBbaUtNw9rJ8IWlR89G-5">
          <mxGeometry relative="1" as="geometry" />
        </mxCell>
        <mxCell id="JQBbaUtNw9rJ8IWlR89G-1" value="" style="ellipse;html=1;shape=startState;fillColor=#000000;strokeColor=#ff0000;" vertex="1" parent="1">
          <mxGeometry x="399" y="110" width="30" height="30" as="geometry" />
        </mxCell>
        <mxCell id="JQBbaUtNw9rJ8IWlR89G-10" style="edgeStyle=orthogonalEdgeStyle;rounded=0;orthogonalLoop=1;jettySize=auto;html=1;entryX=0.5;entryY=0;entryDx=0;entryDy=0;" edge="1" parent="1" source="JQBbaUtNw9rJ8IWlR89G-5" target="JQBbaUtNw9rJ8IWlR89G-9">
          <mxGeometry relative="1" as="geometry" />
        </mxCell>
        <mxCell id="JQBbaUtNw9rJ8IWlR89G-11" style="edgeStyle=orthogonalEdgeStyle;rounded=0;orthogonalLoop=1;jettySize=auto;html=1;entryX=0.5;entryY=0;entryDx=0;entryDy=0;" edge="1" parent="1" source="JQBbaUtNw9rJ8IWlR89G-5" target="JQBbaUtNw9rJ8IWlR89G-8">
          <mxGeometry relative="1" as="geometry" />
        </mxCell>
        <mxCell id="JQBbaUtNw9rJ8IWlR89G-5" value="Tela Inicial" style="rounded=0;whiteSpace=wrap;html=1;" vertex="1" parent="1">
          <mxGeometry x="354" y="170" width="120" height="60" as="geometry" />
        </mxCell>
        <mxCell id="JQBbaUtNw9rJ8IWlR89G-24" style="edgeStyle=orthogonalEdgeStyle;rounded=0;orthogonalLoop=1;jettySize=auto;html=1;entryX=0.5;entryY=0;entryDx=0;entryDy=0;" edge="1" parent="1" source="JQBbaUtNw9rJ8IWlR89G-7" target="JQBbaUtNw9rJ8IWlR89G-14">
          <mxGeometry relative="1" as="geometry" />
        </mxCell>
        <mxCell id="JQBbaUtNw9rJ8IWlR89G-7" value="Tela Administrador" style="rounded=0;whiteSpace=wrap;html=1;" vertex="1" parent="1">
          <mxGeometry x="760" y="232" width="120" height="60" as="geometry" />
        </mxCell>
        <mxCell id="JQBbaUtNw9rJ8IWlR89G-33" style="edgeStyle=orthogonalEdgeStyle;rounded=0;orthogonalLoop=1;jettySize=auto;html=1;entryX=0;entryY=0.5;entryDx=0;entryDy=0;" edge="1" parent="1" source="JQBbaUtNw9rJ8IWlR89G-8" target="JQBbaUtNw9rJ8IWlR89G-7">
          <mxGeometry relative="1" as="geometry" />
        </mxCell>
        <mxCell id="JQBbaUtNw9rJ8IWlR89G-42" style="edgeStyle=orthogonalEdgeStyle;rounded=0;orthogonalLoop=1;jettySize=auto;html=1;" edge="1" parent="1" source="JQBbaUtNw9rJ8IWlR89G-8" target="JQBbaUtNw9rJ8IWlR89G-41">
          <mxGeometry relative="1" as="geometry" />
        </mxCell>
        <mxCell id="JQBbaUtNw9rJ8IWlR89G-8" value="Tela de Login" style="rounded=0;whiteSpace=wrap;html=1;" vertex="1" parent="1">
          <mxGeometry x="490" y="232" width="120" height="60" as="geometry" />
        </mxCell>
        <mxCell id="JQBbaUtNw9rJ8IWlR89G-17" style="edgeStyle=orthogonalEdgeStyle;rounded=0;orthogonalLoop=1;jettySize=auto;html=1;entryX=0.5;entryY=0;entryDx=0;entryDy=0;" edge="1" parent="1" source="JQBbaUtNw9rJ8IWlR89G-9" target="JQBbaUtNw9rJ8IWlR89G-16">
          <mxGeometry relative="1" as="geometry" />
        </mxCell>
        <mxCell id="JQBbaUtNw9rJ8IWlR89G-9" value="Tela de C&lt;span style=&quot;background-color: initial;&quot;&gt;ompra&lt;/span&gt;" style="rounded=0;whiteSpace=wrap;html=1;" vertex="1" parent="1">
          <mxGeometry x="220" y="230" width="120" height="60" as="geometry" />
        </mxCell>
        <mxCell id="JQBbaUtNw9rJ8IWlR89G-20" style="edgeStyle=orthogonalEdgeStyle;rounded=0;orthogonalLoop=1;jettySize=auto;html=1;entryX=0.5;entryY=0;entryDx=0;entryDy=0;exitX=0.25;exitY=1;exitDx=0;exitDy=0;" edge="1" parent="1" source="JQBbaUtNw9rJ8IWlR89G-14" target="JQBbaUtNw9rJ8IWlR89G-19">
          <mxGeometry relative="1" as="geometry" />
        </mxCell>
        <mxCell id="JQBbaUtNw9rJ8IWlR89G-22" style="edgeStyle=orthogonalEdgeStyle;rounded=0;orthogonalLoop=1;jettySize=auto;html=1;exitX=0.75;exitY=1;exitDx=0;exitDy=0;" edge="1" parent="1" source="JQBbaUtNw9rJ8IWlR89G-14" target="JQBbaUtNw9rJ8IWlR89G-21">
          <mxGeometry relative="1" as="geometry" />
        </mxCell>
        <mxCell id="JQBbaUtNw9rJ8IWlR89G-14" value="Tela de Funcionarios" style="rounded=0;whiteSpace=wrap;html=1;" vertex="1" parent="1">
          <mxGeometry x="760" y="332" width="120" height="60" as="geometry" />
        </mxCell>
        <mxCell id="JQBbaUtNw9rJ8IWlR89G-38" style="edgeStyle=orthogonalEdgeStyle;rounded=0;orthogonalLoop=1;jettySize=auto;html=1;entryX=0.5;entryY=1;entryDx=0;entryDy=0;" edge="1" parent="1" source="JQBbaUtNw9rJ8IWlR89G-16" target="JQBbaUtNw9rJ8IWlR89G-9">
          <mxGeometry relative="1" as="geometry" />
        </mxCell>
        <mxCell id="JQBbaUtNw9rJ8IWlR89G-39" style="edgeStyle=orthogonalEdgeStyle;rounded=0;orthogonalLoop=1;jettySize=auto;html=1;entryX=0.5;entryY=0;entryDx=0;entryDy=0;" edge="1" parent="1" source="JQBbaUtNw9rJ8IWlR89G-16" target="JQBbaUtNw9rJ8IWlR89G-29">
          <mxGeometry relative="1" as="geometry" />
        </mxCell>
        <mxCell id="JQBbaUtNw9rJ8IWlR89G-16" value="Tela de Carrinho" style="rounded=0;whiteSpace=wrap;html=1;" vertex="1" parent="1">
          <mxGeometry x="220" y="320" width="120" height="60" as="geometry" />
        </mxCell>
        <mxCell id="JQBbaUtNw9rJ8IWlR89G-19" value="Tela de Cadastro F" style="rounded=0;whiteSpace=wrap;html=1;" vertex="1" parent="1">
          <mxGeometry x="690" y="432" width="120" height="60" as="geometry" />
        </mxCell>
        <mxCell id="JQBbaUtNw9rJ8IWlR89G-21" value="Tela de Alterção F" style="rounded=0;whiteSpace=wrap;html=1;" vertex="1" parent="1">
          <mxGeometry x="830" y="432" width="120" height="60" as="geometry" />
        </mxCell>
        <mxCell id="JQBbaUtNw9rJ8IWlR89G-31" style="edgeStyle=orthogonalEdgeStyle;rounded=0;orthogonalLoop=1;jettySize=auto;html=1;" edge="1" parent="1" source="JQBbaUtNw9rJ8IWlR89G-29">
          <mxGeometry relative="1" as="geometry">
            <mxPoint x="220" y="270" as="targetPoint" />
            <Array as="points">
              <mxPoint x="180" y="440" />
              <mxPoint x="180" y="270" />
              <mxPoint x="220" y="270" />
            </Array>
          </mxGeometry>
        </mxCell>
        <mxCell id="JQBbaUtNw9rJ8IWlR89G-29" value="Tela de Pagamento" style="rounded=0;whiteSpace=wrap;html=1;" vertex="1" parent="1">
          <mxGeometry x="220" y="410" width="120" height="60" as="geometry" />
        </mxCell>
        <mxCell id="JQBbaUtNw9rJ8IWlR89G-34" value="Tela de Cadastro P" style="rounded=0;whiteSpace=wrap;html=1;" vertex="1" parent="1">
          <mxGeometry x="420" y="432" width="120" height="60" as="geometry" />
        </mxCell>
        <mxCell id="JQBbaUtNw9rJ8IWlR89G-35" value="Tela de Alterção P" style="rounded=0;whiteSpace=wrap;html=1;" vertex="1" parent="1">
          <mxGeometry x="560" y="432" width="120" height="60" as="geometry" />
        </mxCell>
        <mxCell id="JQBbaUtNw9rJ8IWlR89G-43" style="edgeStyle=orthogonalEdgeStyle;rounded=0;orthogonalLoop=1;jettySize=auto;html=1;exitX=0.25;exitY=1;exitDx=0;exitDy=0;" edge="1" parent="1" source="JQBbaUtNw9rJ8IWlR89G-41" target="JQBbaUtNw9rJ8IWlR89G-34">
          <mxGeometry relative="1" as="geometry" />
        </mxCell>
        <mxCell id="JQBbaUtNw9rJ8IWlR89G-44" style="edgeStyle=orthogonalEdgeStyle;rounded=0;orthogonalLoop=1;jettySize=auto;html=1;entryX=0.5;entryY=0;entryDx=0;entryDy=0;exitX=0.75;exitY=1;exitDx=0;exitDy=0;" edge="1" parent="1" source="JQBbaUtNw9rJ8IWlR89G-41" target="JQBbaUtNw9rJ8IWlR89G-35">
          <mxGeometry relative="1" as="geometry" />
        </mxCell>
        <mxCell id="JQBbaUtNw9rJ8IWlR89G-41" value="Tela de Estoque" style="rounded=0;whiteSpace=wrap;html=1;" vertex="1" parent="1">
          <mxGeometry x="490" y="332" width="120" height="60" as="geometry" />
        </mxCell>
      </root>
    </mxGraphModel>
  </diagram>
</mxfile>
